<svg width="357" height="73" viewBox="0 0 357 73" fill="none" xmlns="http://www.w3.org/2000/svg">
<g clip-path="url(#clip0_220_2)">
<path d="M119.12 15.64V22.36H101.3V33.7H115.58V40.18H101.3V58H92.84V15.64H119.12ZM153.62 15.64V22.36H141.92V58H133.46V22.36H121.82V15.64H153.62ZM203.96 16.12V58H195.56V28.78L184.82 58H177.5L166.76 28.9V58H158.3V16.12H168.56L181.28 47.62L193.76 16.12H203.96ZM240.74 46.42C240.756 48.5207 240.196 50.5856 239.12 52.39C237.968 54.2762 236.303 55.7955 234.32 56.77C231.91 57.9344 229.255 58.5004 226.58 58.42C223.823 58.4673 221.087 57.9464 218.54 56.89C216.289 55.9547 214.331 54.4316 212.87 52.48C211.435 50.5182 210.591 48.1862 210.44 45.76H219.44C219.597 47.391 220.331 48.9123 221.51 50.05C222.143 50.6329 222.885 51.0842 223.693 51.3778C224.502 51.6713 225.361 51.8013 226.22 51.76C226.955 51.8093 227.693 51.7098 228.389 51.4676C229.084 51.2253 229.724 50.8452 230.27 50.35C230.74 49.873 231.108 49.3049 231.35 48.6807C231.592 48.0565 231.705 47.3893 231.68 46.72C231.724 45.5255 231.317 44.358 230.54 43.45C229.74 42.561 228.758 41.855 227.66 41.38C226.5 40.86 224.9 40.26 222.86 39.58C220.639 38.8704 218.473 37.9981 216.38 36.97C214.669 36.0833 213.198 34.7969 212.09 33.22C210.835 31.3215 210.215 29.0735 210.32 26.8C210.25 25.1568 210.57 23.5203 211.253 22.0241C211.936 20.5278 212.963 19.2141 214.25 18.19C216.87 16.09 220.34 15.04 224.66 15.04C229.14 15.04 232.71 16.12 235.37 18.28C236.678 19.3322 237.754 20.6423 238.534 22.1288C239.313 23.6152 239.778 25.2461 239.9 26.92H230.78C230.585 25.488 229.908 24.1652 228.86 23.17C227.687 22.1415 226.158 21.6137 224.6 21.7C223.232 21.6358 221.888 22.0732 220.82 22.93C220.327 23.3787 219.942 23.9327 219.693 24.5507C219.443 25.1688 219.336 25.835 219.38 26.5C219.341 27.634 219.739 28.7398 220.49 29.59C221.282 30.4471 222.242 31.1314 223.31 31.6C224.828 32.2628 226.38 32.8436 227.96 33.34C230.22 34.1112 232.434 35.0127 234.59 36.04C236.333 36.917 237.828 38.2165 238.94 39.82C240.219 41.7759 240.849 44.0855 240.74 46.42ZM261.92 24.34C265.788 24.2038 269.581 25.4361 272.63 27.82C275.53 30.2079 277.443 33.585 278 37.3H269.06C268.771 35.6585 267.897 34.1773 266.6 33.13C265.206 32.0727 263.488 31.5319 261.74 31.6C260.68 31.5795 259.628 31.7919 258.658 32.2221C257.689 32.6523 256.826 33.29 256.13 34.09C254.63 35.75 253.88 38.18 253.88 41.38C253.88 44.58 254.63 47.01 256.13 48.67C256.826 49.4701 257.689 50.1078 258.658 50.538C259.628 50.9682 260.68 51.1806 261.74 51.16C263.488 51.2282 265.206 50.6874 266.6 49.63C267.897 48.5828 268.771 47.1015 269.06 45.46H278C277.443 49.175 275.53 52.5522 272.63 54.94C269.581 57.324 265.788 58.5563 261.92 58.42C258.911 58.4761 255.937 57.7637 253.28 56.35C250.785 54.9957 248.742 52.9414 247.4 50.44C245.944 47.6466 245.221 44.5291 245.3 41.38C245.224 38.2216 245.946 35.0951 247.4 32.29C248.73 29.7802 250.777 27.7229 253.28 26.38C255.943 24.9853 258.914 24.2837 261.92 24.34ZM297.02 24.34C299.564 24.2682 302.071 24.9576 304.22 26.32C306.181 27.5914 307.676 29.4654 308.48 31.66V24.76H316.88V58H308.48V51.04C307.672 53.2401 306.178 55.1224 304.22 56.41C302.078 57.791 299.568 58.4917 297.02 58.42C294.359 58.4578 291.741 57.7513 289.46 56.38C287.17 54.965 285.345 52.9104 284.21 50.47C282.893 47.6245 282.247 44.5147 282.32 41.38C282.247 38.2454 282.893 35.1356 284.21 32.29C285.345 29.8497 287.17 27.7951 289.46 26.38C291.741 25.0088 294.359 24.3022 297.02 24.34ZM299.66 31.72C298.477 31.67 297.297 31.8745 296.2 32.3196C295.103 32.7647 294.114 33.44 293.3 34.3C291.614 36.2604 290.753 38.7983 290.9 41.38C290.75 43.9532 291.611 46.4832 293.3 48.43C294.118 49.2821 295.109 49.9501 296.205 50.3898C297.302 50.8295 298.48 51.0307 299.66 50.98C300.839 51.0158 302.013 50.8017 303.104 50.3519C304.195 49.9021 305.178 49.2267 305.99 48.37C307.713 46.4618 308.609 43.9479 308.48 41.38C308.615 38.7932 307.72 36.2581 305.99 34.33C305.178 33.4734 304.195 32.798 303.104 32.3482C302.013 31.8984 300.839 31.6843 299.66 31.72ZM344.36 24.28C346.073 24.2033 347.782 24.5019 349.368 25.1548C350.954 25.8077 352.378 26.7993 353.54 28.06C355.82 30.58 356.96 34.12 356.96 38.68V58H348.56V39.64C348.699 37.4036 347.968 35.1999 346.52 33.49C345.8 32.7484 344.929 32.1693 343.967 31.7916C343.004 31.4139 341.972 31.2463 340.94 31.3C339.868 31.2531 338.799 31.4378 337.805 31.8416C336.811 32.2454 335.915 32.8588 335.18 33.64C333.74 35.2 333.02 37.44 333.02 40.36V58H324.56V24.76H333.02V31.42C333.852 29.2384 335.381 27.3927 337.37 26.17C339.472 24.8872 341.898 24.2315 344.36 24.28Z" fill="white"/>
<path d="M63 0H10C4.47715 0 0 4.47715 0 10V63C0 68.5229 4.47715 73 10 73H63C68.5229 73 73 68.5229 73 63V10C73 4.47715 68.5229 0 63 0Z" fill="#001F68"/>
<path d="M59.053 46.0372V26.0132C59.0524 25.1356 58.8211 24.2737 58.3823 23.5137C57.9435 22.7537 57.3127 22.1225 56.553 21.6832L39.029 11.6712C38.268 11.2318 37.4048 11.0005 36.526 11.0005C35.6473 11.0005 34.784 11.2318 34.023 11.6712L16.499 21.6832C15.7394 22.1225 15.1085 22.7537 14.6697 23.5137C14.231 24.2737 13.9997 25.1356 13.999 26.0132V46.0372C13.9997 46.9147 14.231 47.7767 14.6697 48.5366C15.1085 49.2966 15.7394 49.9279 16.499 50.3672L34.023 60.3802C34.784 60.8195 35.6473 61.0508 36.526 61.0508C37.4048 61.0508 38.268 60.8195 39.029 60.3802L56.55 50.3672C57.3102 49.9282 57.9417 49.2971 58.381 48.5371C58.8203 47.7772 59.0521 46.915 59.053 46.0372Z" stroke="white" stroke-width="4" stroke-linecap="round" stroke-linejoin="round"/>
<path d="M14.675 23.4102L36.526 36.0502L58.375 23.4102" stroke="white" stroke-width="4" stroke-linecap="round" stroke-linejoin="round"/>
<path d="M36.526 61.2554V36.0254" stroke="white" stroke-width="4" stroke-linecap="round" stroke-linejoin="round"/>
</g>
<defs>
<clipPath id="clip0_220_2">
<rect width="356.96" height="73" fill="white"/>
</clipPath>
</defs>
</svg>
